<svg width="619" height="75" viewBox="0 0 619 75" fill="none" xmlns="http://www.w3.org/2000/svg">
<path d="M19.0015 73.2442C15.7609 73.2442 12.7781 72.9496 10.0531 72.3604C7.3281 71.7712 5.0818 71.1452 3.31422 70.4824C1.54663 69.7459 0.662844 69.3408 0.662844 69.2671L0 67.9415C0.0736494 67.4996 0.220948 66.4316 0.441895 64.7377C0.662844 63.0438 0.883791 60.7238 1.10474 57.7778C1.39934 54.8319 1.54663 51.8859 1.54663 48.9399L8.28554 48.3876C8.28554 53.2484 8.65379 56.9309 9.39028 59.435C10.1268 61.8654 11.4156 63.5593 13.2569 64.5168C15.1717 65.4742 18.0072 65.9529 21.7634 65.9529C25.8877 65.9529 29.2019 64.9955 31.706 63.0806C34.2101 61.1657 35.4621 58.588 35.4621 55.3474C35.4621 52.5488 34.2469 50.2288 31.8165 48.3876C29.4597 46.4727 25.8509 44.3 20.99 41.8696C20.7691 41.7223 20.0694 41.3541 18.891 40.7649C13.2937 37.9662 8.91156 35.1307 5.74464 32.2584C2.65137 29.3861 1.10474 25.7036 1.10474 21.211C1.10474 17.2339 2.28313 13.6251 4.6399 10.3845C6.99668 7.14398 10.2372 4.60308 14.3616 2.76184C18.486 0.920614 23.1259 0 28.2813 0C31.3009 0 34.1364 0.220945 36.7878 0.66284C39.4392 1.10473 41.5382 1.54663 43.0848 1.98853C44.7051 2.43042 45.6994 2.72502 46.0676 2.87232L46.5095 3.86658C46.2886 4.89767 45.8835 7.25445 45.2943 10.9369C44.7051 14.5457 44.2632 18.4491 43.9686 22.6471L38.003 23.1995L37.1192 22.5367C37.1929 22.3157 37.2665 21.7265 37.3402 20.7691C37.4138 19.8117 37.4507 18.7437 37.4507 17.5653C37.4507 13.9565 36.53 11.4525 34.6888 10.0531C32.9212 8.58014 29.7911 7.84364 25.2985 7.84364C21.6897 7.84364 18.7069 8.76426 16.3501 10.6055C13.9934 12.3731 12.815 14.6194 12.815 17.3444C12.815 20.1431 14.0302 22.4999 16.4606 24.4147C18.891 26.3296 22.6103 28.5391 27.6185 31.0432C32.0374 33.2526 35.5358 35.1675 38.1135 36.7878C40.7649 38.4081 43.0112 40.4334 44.8524 42.8639C46.7673 45.2943 47.7247 48.1298 47.7247 51.3704C47.7247 55.642 46.5095 59.435 44.0791 62.7492C41.7223 66.0634 38.3713 68.6411 34.026 70.4824C29.6807 72.3236 24.6725 73.2442 19.0015 73.2442Z" fill="#010101"/>
<path d="M62.3271 26.5137C62.3271 24.6725 62.1062 23.4573 61.6643 22.8681C61.2224 22.2053 60.3386 21.8738 59.0129 21.8738L56.1406 21.9843L55.6987 21.3215L56.472 16.5711L67.9613 16.792C69.5816 16.792 71.7174 16.7184 74.3688 16.5711C77.0938 16.3501 78.8614 16.2028 79.6715 16.1292L79.2296 21.4319C76.9465 21.8002 75.3999 22.3526 74.5897 23.089C73.8532 23.7519 73.4482 24.8566 73.3745 26.4033L72.4907 60.8711C72.4171 63.2279 72.638 64.8114 73.1536 65.6215C73.6691 66.4316 74.6634 66.8367 76.1364 66.8367C77.0202 66.8367 77.7935 66.7999 78.4563 66.7262C79.1192 66.6526 79.5611 66.5789 79.782 66.5053L80.1134 67.0577L79.3401 72.1395C78.3827 72.1395 76.6519 72.1026 74.1478 72.029C71.7174 71.9553 69.287 71.9185 66.8566 71.9185C64.2788 71.9185 61.8484 71.9553 59.5653 72.029C57.2822 72.1026 55.7355 72.1395 54.9254 72.1395L55.8092 66.9472C58.4605 66.5789 60.1913 65.9897 61.0014 65.1796C61.8116 64.3695 62.2167 62.7123 62.2167 60.2083L62.3271 26.5137Z" fill="#010101"/>
<path d="M91.4922 24.4147C91.4922 23.6046 91.0872 23.0154 90.277 22.6471C89.4669 22.2053 88.178 21.9107 86.4104 21.7634L86.079 21.211L86.8523 16.2397C87.6625 16.3133 89.2828 16.4238 91.7132 16.5711C94.2173 16.7184 96.2426 16.792 97.7893 16.792C99.7778 16.792 101.729 16.7552 103.644 16.6816C105.633 16.6079 106.995 16.5343 107.732 16.4606L107.811 16.5711C108.621 16.5711 110.131 16.6079 112.34 16.6816C114.549 16.7552 116.759 16.792 118.968 16.792C121.03 16.792 123.608 16.7184 126.701 16.5711C129.868 16.3501 131.967 16.2028 132.998 16.1292L133.44 16.9025L132.998 21.3215C130.715 21.4688 129.169 21.7634 128.359 22.2053C127.548 22.5735 127.143 23.2363 127.143 24.1938C127.143 24.8566 127.954 26.9188 129.574 30.3803C131.194 33.7682 132.704 36.8983 134.103 39.7706L135.539 42.8639H136.313L144.377 27.729C145.335 26.035 145.813 24.6725 145.813 23.6414C145.813 22.2421 144.156 21.5056 140.842 21.4319L140.621 21.1005L141.174 16.3501L144.819 16.4606C147.25 16.6816 149.901 16.792 152.773 16.792C154.835 16.792 156.714 16.7552 158.407 16.6816C160.101 16.6079 161.243 16.5343 161.832 16.4606L162.164 17.1235L161.501 21.7634C158.997 22.4998 157.045 23.6046 155.646 25.0776C154.246 26.4769 152.405 29.0915 150.122 32.9212L141.395 48.1666C140.584 49.7133 140.069 51.3335 139.848 53.0275C139.701 54.7214 139.627 57.5569 139.627 61.534C139.627 63.4488 139.922 64.7745 140.511 65.511C141.1 66.2475 142.205 66.6158 143.825 66.6158C144.856 66.6158 145.777 66.5789 146.587 66.5053C147.471 66.4316 148.06 66.3948 148.354 66.3948L148.575 66.8367L147.692 72.2499C146.66 72.2499 144.746 72.1763 141.947 72.029C139.222 71.9553 136.497 71.9185 133.772 71.9185C131.71 71.9185 129.242 72.029 126.37 72.2499C123.571 72.5445 121.73 72.7655 120.846 72.9128L121.509 67.4996C123.866 67.1313 125.56 66.6894 126.591 66.1739C127.622 65.5847 128.322 64.7745 128.69 63.7434C129.058 62.7123 129.242 61.1657 129.242 59.1035V56.1207C129.242 54.5741 129.058 53.1748 128.69 51.9227C128.395 50.597 127.733 48.9768 126.701 47.0619L117.974 30.9327C116.354 27.8394 114.881 25.7036 113.555 24.5252C112.303 23.2732 110.241 22.4262 107.369 21.9843L107.332 21.935C105.629 22.5283 103.995 23.4654 102.429 24.7462C100.883 25.9982 98.7835 28.0972 96.1321 31.0432L85.0848 42.201L98.1207 59.7664C100.036 62.4178 101.766 64.3326 103.313 65.511C104.933 66.6158 106.774 67.205 108.837 67.2786L109.389 68.0519L108.726 72.1395C107.842 72.2131 106.333 72.3604 104.197 72.5814C102.135 72.876 100.404 73.0601 99.0045 73.1337C95.4693 73.1337 92.1183 70.7401 88.9513 65.9529L74.5897 44.7419L74.7002 42.9743L88.9513 28.6127C90.6453 27.0661 91.4922 25.6668 91.4922 24.4147Z" fill="#010101"/>
<path d="M164.383 67.3891C166.667 67.0945 168.25 66.4316 169.134 65.4006C170.018 64.2958 170.46 62.4914 170.46 59.9873L170.57 26.5137C170.57 24.6725 170.349 23.4573 169.907 22.8681C169.465 22.2053 168.581 21.8738 167.256 21.8738L164.383 21.9843L163.942 21.3215L164.604 16.5711C165.93 16.5711 167.145 16.6079 168.25 16.6816L176.315 16.792C177.935 16.792 180.218 16.7184 183.164 16.5711C186.11 16.3501 188.062 16.2028 189.019 16.1292L188.356 21.6529C186.368 21.8738 184.932 22.2053 184.048 22.6471C183.164 23.089 182.612 23.7151 182.391 24.5252C182.17 25.2617 181.986 26.5137 181.838 28.2813C181.102 37.5611 180.734 48.2403 180.734 60.3187C180.734 62.6755 181.102 64.1853 181.838 64.8482C182.648 65.511 184.379 65.8424 187.031 65.8424C190.198 65.8424 192.554 65.5479 194.101 64.9587C195.648 64.2958 196.789 63.0806 197.526 61.313C198.336 59.5454 199.035 56.7468 199.625 52.917L206.143 52.2542L206.584 53.0275C206.437 54.0586 206.106 56.4522 205.59 60.2083C205.075 63.8907 204.596 67.7573 204.154 71.808L203.381 72.6918C201.687 72.6182 198.115 72.4709 192.665 72.2499C187.215 72.029 182.391 71.9185 178.193 71.9185C175.026 71.9185 172.006 72.029 169.134 72.2499C166.335 72.5445 164.531 72.7287 163.721 72.8023L164.383 67.3891Z" fill="#010101"/>
<path d="M207.863 67.4996C210.588 66.984 212.392 66.2475 213.276 65.2901C214.16 64.3326 214.602 62.6387 214.602 60.2083L214.712 26.5137C214.712 24.6725 214.491 23.4573 214.049 22.8681C213.607 22.2053 212.724 21.8738 211.398 21.8738L208.084 21.9843L207.752 21.3215L208.305 16.5711C209.63 16.5711 210.845 16.6079 211.95 16.6816L220.346 16.792C222.04 16.792 224.25 16.7184 226.975 16.5711C229.773 16.3501 231.615 16.2028 232.498 16.1292L232.056 21.4319C229.7 21.7265 228.116 22.1684 227.306 22.7576C226.57 23.3468 226.128 24.4884 225.98 26.1823C225.244 40.6176 224.876 52.1805 224.876 60.8711C224.876 63.2279 225.097 64.8114 225.539 65.6215C226.054 66.4316 227.048 66.8367 228.521 66.8367C229.552 66.8367 230.436 66.7999 231.173 66.7262C231.983 66.6526 232.498 66.5789 232.719 66.5053L233.051 67.0577L232.277 72.1395C231.32 72.1395 229.516 72.1026 226.864 72.029C224.286 71.9553 221.746 71.9185 219.242 71.9185C217.179 71.9185 214.859 72.029 212.282 72.2499C209.704 72.5445 208.01 72.7287 207.2 72.8023L207.863 67.4996Z" fill="#010101"/>
<path d="M283.572 25.6299C283.572 24.3043 283.314 23.3836 282.799 22.8681C282.357 22.2789 281.62 21.9843 280.589 21.9843H277.385L277.164 21.4319L277.827 16.4606C278.637 16.5343 280.073 16.6079 282.136 16.6816C284.272 16.7552 286.407 16.792 288.543 16.792C290.311 16.792 292.299 16.7184 294.509 16.5711C296.718 16.4238 298.154 16.3133 298.817 16.2397L298.375 21.5424C296.24 21.837 294.73 22.3894 293.846 23.1995C292.962 24.0097 292.483 25.2985 292.41 27.0661L291.195 73.3547L283.793 74.4594C277.459 65.1059 271.051 56.0103 264.57 47.1724C258.163 38.3344 254.959 33.9891 254.959 34.1364H254.186L254.075 62.9701C254.075 64.4431 254.296 65.4742 254.738 66.0634C255.18 66.5789 255.953 66.8367 257.058 66.8367L261.146 66.7262L261.698 67.0577L260.704 72.2499C259.894 72.1763 258.421 72.1026 256.285 72.029C254.149 71.9553 251.939 71.9185 249.656 71.9185C247.815 71.9185 245.79 71.9922 243.58 72.1395C241.444 72.3604 240.045 72.5077 239.382 72.5814L240.045 67.2786C241.886 67.0577 243.212 66.5421 244.022 65.732C244.906 64.9218 245.385 63.633 245.458 61.8654L246.674 26.9556C246.674 25.1144 246.158 23.8624 245.127 23.1995C244.096 22.463 242.107 21.9107 239.161 21.5424L238.498 20.8796L239.272 16.3501C239.935 16.4238 241.297 16.5343 243.359 16.6816C245.422 16.7552 247.263 16.792 248.883 16.792C250.724 16.792 252.381 16.7552 253.854 16.6816C255.327 16.6079 256.322 16.5343 256.837 16.4606C262.14 24.4884 267.443 32.1479 272.745 39.4392C278.048 46.7305 281.473 51.4072 283.019 53.4694H283.793L283.572 25.6299Z" fill="#010101"/>
<path d="M303.699 67.3891C306.277 67.0945 308.044 66.4316 309.002 65.4006C309.959 64.2958 310.438 62.4914 310.438 59.9873L310.548 26.5137C310.548 24.6725 310.327 23.4573 309.885 22.8681C309.517 22.2053 308.707 21.8738 307.455 21.8738L304.583 21.9843L304.141 21.4319L304.914 16.5711C305.945 16.5711 307.897 16.6079 310.769 16.6816C313.715 16.7552 316.882 16.792 320.27 16.792C333.011 16.792 342.181 16.4606 347.778 15.7978L348.33 16.4606C348.183 17.3444 347.852 19.2961 347.336 22.3157C346.82 25.3353 346.452 28.5391 346.231 31.927L339.161 32.3689C339.161 32.1479 339.198 31.706 339.271 31.0432C339.345 30.3067 339.382 29.5702 339.382 28.8337C339.382 27.0661 339.124 25.8141 338.609 25.0776C338.093 24.3411 337.025 23.8624 335.405 23.6414C333.785 23.3468 331.06 23.1995 327.23 23.1995C325.536 23.1995 324.321 23.2732 323.584 23.4205C322.921 23.5678 322.479 23.8255 322.258 24.1938C322.037 24.562 321.927 25.2249 321.927 26.1823L321.264 40.4334L329.881 40.5439C331.207 40.5439 333.122 40.4334 335.626 40.2125C338.203 39.9179 339.897 39.7338 340.708 39.6601L341.26 40.4334L339.934 47.1724C339.124 47.1724 337.541 47.1355 335.184 47.0619C332.901 46.9882 330.47 46.9514 327.893 46.9514C325.978 46.9514 323.658 47.1355 320.933 47.5038C320.785 52.2173 320.712 56.5995 320.712 60.6502C320.712 62.2705 320.822 63.4488 321.043 64.1853C321.338 64.8482 321.89 65.2901 322.7 65.511C323.51 65.732 324.91 65.8424 326.898 65.8424C331.17 65.8424 334.226 65.6215 336.068 65.1796C337.983 64.7377 339.345 63.8539 340.155 62.5282C340.965 61.2025 341.628 58.9562 342.144 55.7893L348.551 55.3474L349.214 56.0103C348.993 56.8941 348.588 58.8826 347.999 61.9759C347.483 65.0691 347.078 68.3097 346.784 71.6976L345.9 72.4709C343.985 72.3972 339.897 72.2868 333.637 72.1395C327.451 71.9922 322.185 71.9185 317.839 71.9185C314.599 71.9185 311.542 72.029 308.67 72.2499C305.798 72.5445 303.957 72.7287 303.146 72.8023L303.699 67.3891Z" fill="#010101"/>
<path d="M391.557 73.2442C388.317 73.2442 385.334 72.9496 382.609 72.3604C379.884 71.7712 377.638 71.1452 375.87 70.4824C374.103 69.7459 373.219 69.3408 373.219 69.2671L372.556 67.9415C372.63 67.4996 372.777 66.4316 372.998 64.7377C373.219 63.0438 373.44 60.7238 373.661 57.7778C373.955 54.8319 374.103 51.8859 374.103 48.9399L380.842 48.3876C380.842 53.2484 381.21 56.9309 381.946 59.435C382.683 61.8654 383.972 63.5593 385.813 64.5168C387.728 65.4742 390.563 65.9529 394.319 65.9529C398.444 65.9529 401.758 64.9955 404.262 63.0806C406.766 61.1657 408.018 58.588 408.018 55.3474C408.018 52.5488 406.803 50.2288 404.372 48.3876C402.016 46.4727 398.407 44.3 393.546 41.8696C393.325 41.7223 392.625 41.3541 391.447 40.7649C385.85 37.9662 381.468 35.1307 378.301 32.2584C375.207 29.3861 373.661 25.7036 373.661 21.211C373.661 17.2339 374.839 13.6251 377.196 10.3845C379.553 7.14398 382.793 4.60308 386.918 2.76184C391.042 0.920614 395.682 0 400.837 0C403.857 0 406.692 0.220945 409.344 0.66284C411.995 1.10473 414.094 1.54663 415.641 1.98853C417.261 2.43042 418.255 2.72502 418.624 2.87232L419.065 3.86658C418.845 4.89767 418.439 7.25445 417.85 10.9369C417.261 14.5457 416.819 18.4491 416.525 22.6471L410.559 23.1995L409.675 22.5367C409.749 22.3157 409.823 21.7265 409.896 20.7691C409.97 19.8117 410.007 18.7437 410.007 17.5653C410.007 13.9565 409.086 11.4525 407.245 10.0531C405.477 8.58014 402.347 7.84364 397.854 7.84364C394.246 7.84364 391.263 8.76426 388.906 10.6055C386.549 12.3731 385.371 14.6194 385.371 17.3444C385.371 20.1431 386.586 22.4999 389.017 24.4147C391.447 26.3296 395.166 28.5391 400.174 31.0432C404.593 33.2526 408.092 35.1675 410.669 36.7878C413.321 38.4081 415.567 40.4334 417.408 42.8639C419.323 45.2943 420.281 48.1298 420.281 51.3704C420.281 55.642 419.065 59.435 416.635 62.7492C414.278 66.0634 410.927 68.6411 406.582 70.4824C402.237 72.3236 397.228 73.2442 391.557 73.2442Z" fill="#010101"/>
<path d="M434.552 67.1681C437.424 66.9472 439.449 66.5789 440.628 66.0634C441.88 65.5479 442.69 64.7377 443.058 63.633C443.426 62.4546 443.611 60.5029 443.611 57.7778V22.6471C439.854 22.7944 437.203 23.089 435.656 23.5309C434.183 23.8992 433.079 24.8198 432.342 26.2928C431.679 27.6921 431.127 30.233 430.685 33.9155L424.057 34.2469C424.204 33.2158 424.425 30.8959 424.72 27.2871C425.014 23.6046 425.198 20.0694 425.272 16.6816L426.156 15.7978L434.773 16.6816H463.054L471.781 15.7978L472.652 16.5715C473.493 16.5759 474.95 16.6125 477.02 16.6816C479.23 16.7552 481.439 16.792 483.649 16.792C485.711 16.792 488.289 16.7184 491.382 16.5711C494.549 16.3501 496.648 16.2028 497.679 16.1292L498.121 16.9025L497.679 21.3215C495.396 21.4688 493.849 21.7634 493.039 22.2053C492.229 22.5735 491.824 23.2363 491.824 24.1938C491.824 24.8566 492.634 26.9188 494.254 30.3803C495.874 33.7682 497.384 36.8983 498.784 39.7706L500.22 42.8639H500.993L509.058 27.729C510.015 26.035 510.494 24.6725 510.494 23.6414C510.494 22.2421 508.837 21.5056 505.523 21.4319L505.302 21.1005L505.854 16.3501L509.5 16.4606C511.93 16.6816 514.581 16.792 517.454 16.792C519.516 16.792 521.394 16.7552 523.088 16.6816C524.782 16.6079 525.923 16.5343 526.513 16.4606L526.844 17.1235L526.181 21.7634C523.677 22.4998 521.725 23.6046 520.326 25.0776C518.927 26.4769 517.085 29.0915 514.802 32.9212L506.075 48.1666C505.265 49.7133 504.749 51.3335 504.528 53.0275C504.381 54.7214 504.307 57.5569 504.307 61.534C504.307 63.4488 504.602 64.7745 505.191 65.511C505.78 66.2475 506.885 66.6158 508.505 66.6158C509.536 66.6158 510.457 66.5789 511.267 66.5053C512.151 66.4316 512.74 66.3948 513.035 66.3948L513.256 66.8367L512.372 72.2499C511.341 72.2499 509.426 72.1763 506.627 72.029C503.902 71.9553 501.177 71.9185 498.452 71.9185C496.39 71.9185 493.923 72.029 491.05 72.2499C488.252 72.5445 486.411 72.7655 485.527 72.9128L486.19 67.4996C488.546 67.1313 490.24 66.6894 491.271 66.1739C492.302 65.5847 493.002 64.7745 493.37 63.7434C493.739 62.7123 493.923 61.1657 493.923 59.1035V56.1207C493.923 54.5741 493.739 53.1748 493.37 51.9227C493.076 50.597 492.413 48.9768 491.382 47.0619L482.654 30.9327C481.034 27.8394 479.561 25.7036 478.236 24.5252C477.123 23.4132 475.372 22.6207 472.982 22.1477C473.072 23.8157 473.188 25.4919 473.328 27.1766C473.623 30.6381 473.807 32.8844 473.88 33.9155L467.252 34.2469C466.736 30.4171 466.147 27.7658 465.484 26.2928C464.822 24.8198 463.79 23.8992 462.391 23.5309C460.992 23.089 458.525 22.7944 454.989 22.6471C454.695 26.4033 454.4 32.0743 454.106 39.6601C453.885 47.1724 453.774 54.2059 453.774 60.7606C453.774 62.8965 454.142 64.4063 454.879 65.2901C455.689 66.1739 457.015 66.6158 458.856 66.6158C460.108 66.6158 461.139 66.5789 461.949 66.5053C462.833 66.4316 463.385 66.3948 463.606 66.3948L464.048 66.8367L463.275 72.2499C462.17 72.2499 460.108 72.1763 457.088 72.029C454.069 71.9553 451.123 71.9185 448.25 71.9185C446.188 71.9185 443.5 71.9922 440.186 72.1395C436.945 72.2868 434.809 72.3972 433.778 72.4709L434.552 67.1681Z" fill="#010101"/>
<path d="M529.064 67.3891C531.347 67.0945 532.93 66.4316 533.814 65.4006C534.698 64.2958 535.14 62.4914 535.14 59.9873L535.25 26.5137C535.25 24.6725 535.029 23.4573 534.588 22.8681C534.146 22.2053 533.262 21.8738 531.936 21.8738L529.064 21.9843L528.622 21.3215L529.285 16.5711C530.61 16.5711 531.826 16.6079 532.93 16.6816L540.995 16.792C542.615 16.792 544.898 16.7184 547.844 16.5711C550.79 16.3501 552.742 16.2028 553.7 16.1292L553.037 21.6529C551.048 21.8738 549.612 22.2053 548.728 22.6471C547.844 23.089 547.292 23.7151 547.071 24.5252C546.85 25.2617 546.666 26.5137 546.519 28.2813C545.782 37.5611 545.414 48.2403 545.414 60.3187C545.414 62.6755 545.782 64.1853 546.519 64.8482C547.329 65.511 549.06 65.8424 551.711 65.8424C554.878 65.8424 557.235 65.5479 558.781 64.9587C560.328 64.2958 561.47 63.0806 562.206 61.313C563.016 59.5454 563.716 56.7468 564.305 52.917L570.823 52.2542L571.265 53.0275C571.118 54.0586 570.786 56.4522 570.271 60.2083C569.755 63.8907 569.276 67.7573 568.834 71.808L568.061 72.6918C566.367 72.6182 562.795 72.4709 557.345 72.2499C551.895 72.029 547.071 71.9185 542.873 71.9185C539.706 71.9185 536.687 72.029 533.814 72.2499C531.016 72.5445 529.211 72.7287 528.401 72.8023L529.064 67.3891Z" fill="#010101"/>
<path d="M572.543 67.3891C575.121 67.0945 576.888 66.4316 577.846 65.4006C578.803 64.2958 579.282 62.4914 579.282 59.9873L579.393 26.5137C579.393 24.6725 579.172 23.4573 578.73 22.8681C578.361 22.2053 577.551 21.8738 576.299 21.8738L573.427 21.9843L572.985 21.4319L573.758 16.5711C574.789 16.5711 576.741 16.6079 579.613 16.6816C582.559 16.7552 585.726 16.792 589.114 16.792C601.856 16.792 611.025 16.4606 616.622 15.7978L617.175 16.4606C617.027 17.3444 616.696 19.2961 616.18 22.3157C615.665 25.3353 615.297 28.5391 615.076 31.927L608.005 32.3689C608.005 32.1479 608.042 31.706 608.116 31.0432C608.189 30.3067 608.226 29.5702 608.226 28.8337C608.226 27.0661 607.968 25.8141 607.453 25.0776C606.937 24.3411 605.869 23.8624 604.249 23.6414C602.629 23.3468 599.904 23.1995 596.074 23.1995C594.38 23.1995 593.165 23.2732 592.428 23.4205C591.766 23.5678 591.324 23.8255 591.103 24.1938C590.882 24.562 590.771 25.2249 590.771 26.1823L590.108 40.4334L598.725 40.5439C600.051 40.5439 601.966 40.4334 604.47 40.2125C607.048 39.9179 608.742 39.7338 609.552 39.6601L610.104 40.4334L608.779 47.1724C607.968 47.1724 606.385 47.1355 604.028 47.0619C601.745 46.9882 599.315 46.9514 596.737 46.9514C594.822 46.9514 592.502 47.1355 589.777 47.5038C589.63 52.2173 589.556 56.5995 589.556 60.6502C589.556 62.2705 589.667 63.4488 589.888 64.1853C590.182 64.8482 590.734 65.2901 591.545 65.511C592.355 65.732 593.754 65.8424 595.743 65.8424C600.014 65.8424 603.071 65.6215 604.912 65.1796C606.827 64.7377 608.189 63.8539 609 62.5282C609.81 61.2025 610.472 58.9562 610.988 55.7893L617.396 55.3474L618.058 56.0103C617.837 56.8941 617.432 58.8826 616.843 61.9759C616.328 65.0691 615.923 68.3097 615.628 71.6976L614.744 72.4709C612.829 72.3972 608.742 72.2868 602.482 72.1395C596.295 71.9922 591.029 71.9185 586.684 71.9185C583.443 71.9185 580.387 72.029 577.514 72.2499C574.642 72.5445 572.801 72.7287 571.991 72.8023L572.543 67.3891Z" fill="#010101"/>
</svg>
